<svg width="41" height="26" viewBox="0 0 41 26" fill="none" xmlns="http://www.w3.org/2000/svg">
<path d="M2.06999 2.02975C3.14861 2.59848 18.1315 10.7665 18.6904 11.0607C19.2493 11.3548 19.8181 11.4921 20.7006 11.4921C21.5831 11.4921 22.1518 11.3548 22.7107 11.0607C23.2696 10.7665 38.2525 2.59848 39.3312 2.02975C39.7332 1.82384 40.4098 1.45122 40.5569 1.02958C40.8118 0.284362 40.5372 0 39.4488 0H20.7006H1.95233C0.863908 0 0.589352 0.294167 0.844297 1.02958C0.99138 1.46103 1.66796 1.82384 2.06999 2.02975Z" fill="#413A97"/>
<path d="M40.1843 2.47085C39.3803 2.88268 32.1634 8.0208 27.3881 11.1096L35.4482 20.1797C35.6444 20.3758 35.7326 20.6112 35.6247 20.7288C35.5071 20.8367 35.2521 20.7778 35.0462 20.5915L25.3779 12.4333C23.9169 13.3746 22.8873 14.0218 22.7108 14.1199C21.9558 14.5023 21.4263 14.5513 20.7007 14.5513C19.9751 14.5513 19.4456 14.5023 18.6905 14.1199C18.5042 14.0218 17.4844 13.3746 16.0234 12.4333L6.35512 20.5915C6.15901 20.7877 5.89426 20.8465 5.77659 20.7288C5.65893 20.621 5.74718 20.3758 5.94329 20.1797L13.9937 11.1096C9.21835 8.0208 1.92301 2.88268 1.11895 2.47085C0.256059 2.0296 0.207031 2.5493 0.207031 2.95132C0.207031 3.35335 0.207031 23.0527 0.207031 23.0527C0.207031 23.9647 1.55039 25.1021 2.51134 25.1021H20.7007H38.89C39.8509 25.1021 40.9982 23.9549 40.9982 23.0527C40.9982 23.0527 40.9982 3.34355 40.9982 2.95132C40.9982 2.53949 41.057 2.0296 40.1843 2.47085Z" fill="#413A97"/>
</svg>
