<svg width="60" height="60" viewBox="0 0 60 60" fill="none" xmlns="http://www.w3.org/2000/svg">
<path d="M29.7564 35.6085C32.7198 35.6085 35.1222 33.2062 35.1222 30.2427C35.1222 27.2793 32.7198 24.877 29.7564 24.877C26.793 24.877 24.3906 27.2793 24.3906 30.2427C24.3906 33.2062 26.793 35.6085 29.7564 35.6085Z" fill="white"/>
<path d="M36.4637 17.0723H23.0493C21.0981 17.0723 19.3908 17.682 18.2932 18.7796C17.1957 19.8771 16.5859 21.5844 16.5859 23.5356V36.95C16.5859 38.9012 17.1957 40.6085 18.4152 41.828C19.6347 42.9256 21.22 43.5353 23.1712 43.5353H36.4637C38.4149 43.5353 40.1222 42.9256 41.2197 41.828C42.4392 40.7305 43.049 39.0232 43.049 37.072V23.6575C43.049 21.7063 42.4392 20.121 41.3417 18.9015C40.1222 17.682 38.5369 17.0723 36.4637 17.0723ZM29.7565 38.5354C25.1224 38.5354 21.4639 34.7549 21.4639 30.2428C21.4639 25.6087 25.2444 21.9502 29.7565 21.9502C34.2686 21.9502 38.171 25.6087 38.171 30.2428C38.171 34.8769 34.3906 38.5354 29.7565 38.5354ZM38.4149 23.5356C37.3174 23.5356 36.4637 22.6819 36.4637 21.5844C36.4637 20.4869 37.3174 19.6332 38.4149 19.6332C39.5125 19.6332 40.3661 20.4869 40.3661 21.5844C40.3661 22.6819 39.5125 23.5356 38.4149 23.5356Z" fill="white"/>
<path d="M29.9996 0C13.4144 0 0 13.4144 0 29.9996C0 46.5847 13.4144 59.9992 29.9996 59.9992C46.5847 59.9992 59.9992 46.5847 59.9992 29.9996C60.1211 13.4144 46.5847 0 29.9996 0ZM45.975 37.0727C45.975 39.8775 44.9994 42.3165 43.2921 44.0238C41.5848 45.7311 39.1458 46.5847 36.4629 46.5847H23.1704C20.4875 46.5847 18.0485 45.7311 16.3412 44.0238C14.512 42.3165 13.6583 39.8775 13.6583 37.0727V23.6582C13.6583 18.0485 17.4388 14.1461 23.1704 14.1461H36.5849C39.3897 14.1461 41.7067 15.1217 43.414 16.829C45.1213 18.5363 45.975 20.8534 45.975 23.6582V37.0727Z" fill="white"/>
</svg>
