<svg width="25" height="32" viewBox="0 0 25 32" fill="none" xmlns="http://www.w3.org/2000/svg">
<path d="M0 12.0002C0 8.81751 1.31696 5.76523 3.66117 3.51476C6.00537 1.2643 9.18479 0 12.5 0C15.8152 0 18.9946 1.2643 21.3388 3.51476C23.683 5.76523 25 8.81751 25 12.0002C25 20.0059 12.5 32 12.5 32C12.5 32 0 19.9998 0 12.0002ZM7.29177 12.0002C7.29177 12.9891 7.59723 13.9557 8.16952 14.778C8.7418 15.6002 9.55522 16.2411 10.5069 16.6195C11.4586 16.9979 12.5058 17.097 13.5161 16.904C14.5264 16.7111 15.4544 16.2349 16.1828 15.5357C16.9112 14.8364 17.4072 13.9455 17.6082 12.9756C17.8091 12.0057 17.706 11.0004 17.3118 10.0867C16.9176 9.17313 16.25 8.39224 15.3935 7.84283C14.537 7.29343 13.5301 7.00019 12.5 7.00019C11.1187 7.00019 9.79396 7.52697 8.81723 8.46464C7.84049 9.40232 7.29177 10.6741 7.29177 12.0002Z" fill="#413A97"/>
</svg>
