<svg width="359" height="62" viewBox="0 0 359 62" fill="none" xmlns="http://www.w3.org/2000/svg">
<path fill-rule="evenodd" clip-rule="evenodd" d="M357.031 27.2968C356.225 25.7299 354.959 24.447 353.402 23.6202C351.818 22.7946 350.054 22.3726 348.267 22.3915C346.565 22.3648 344.88 22.7293 343.342 23.457C341.934 24.1155 340.74 25.1567 339.896 26.4617V13.9824H335.691V48.1947H339.829V34.1892C339.822 31.5333 340.478 29.5143 341.797 28.132C342.48 27.4291 343.305 26.8798 344.217 26.5206C345.129 26.1614 346.107 26.0006 347.086 26.0489C348.042 25.9997 348.999 26.153 349.892 26.4987C350.785 26.8444 351.595 27.3748 352.27 28.0552C353.635 29.6709 354.323 31.7517 354.189 33.8628V48.1947H358.356V33.258C358.419 31.1915 357.964 29.142 357.031 27.2968ZM133.819 40.4486C135.257 42.942 137.348 44.9963 139.866 46.3906H139.886C142.459 47.7895 145.342 48.5223 148.271 48.5223C151.2 48.5223 154.082 47.7895 156.656 46.3906C159.163 44.995 161.241 42.9402 162.665 40.4486C164.113 37.8269 164.872 34.8809 164.872 31.8859C164.872 28.8909 164.113 25.9449 162.665 23.3232C161.246 20.8332 159.166 18.7836 156.656 17.4004C154.077 16.0082 151.192 15.2793 148.261 15.2793C145.33 15.2793 142.445 16.0082 139.866 17.4004C137.353 18.7929 135.263 20.8395 133.819 23.3232C132.346 25.9368 131.572 28.886 131.572 31.8859C131.572 34.8858 132.346 37.835 133.819 40.4486ZM156.819 31.8523C156.819 34.3332 155.999 36.7445 154.486 38.7111V38.7495C152.827 40.3955 150.584 41.3192 148.247 41.3192C145.909 41.3192 143.667 40.3955 142.007 38.7495C140.494 36.7756 139.675 34.3582 139.675 31.8715C139.675 29.3848 140.494 26.9674 142.007 24.9935C143.673 23.359 145.913 22.4433 148.247 22.4433C150.58 22.4433 152.821 23.359 154.486 24.9935C155.999 26.9601 156.819 29.3714 156.819 31.8523ZM116.739 23.522C117.811 24.0742 118.691 24.9375 119.264 25.9987L128 25.9891C127.248 22.8268 125.367 20.048 122.71 18.1752C119.812 16.2244 116.372 15.2369 112.88 15.3529C109.895 15.2978 106.947 16.0224 104.327 17.4552C101.866 18.8266 99.8406 20.8623 98.4813 23.33C97.1002 25.9747 96.3789 28.914 96.3789 31.8975C96.3789 34.8811 97.1002 37.8204 98.4813 40.465C99.8489 42.9256 101.881 44.9516 104.347 46.311C106.977 47.7416 109.934 48.466 112.928 48.4133C115.452 48.4579 117.952 47.9191 120.234 46.839C122.289 45.8711 124.109 44.4694 125.571 42.7305C126.93 41.1154 127.945 39.2406 128.556 37.2204V29.8768H111.354V35.7037H121.395C120.9 37.386 119.894 38.8724 118.515 39.9562C117.077 40.9681 115.349 41.4867 113.591 41.4345C112.356 41.5076 111.12 41.3206 109.963 40.8857C108.805 40.4508 107.752 39.7777 106.871 38.9099C106.026 37.9607 105.376 36.8539 104.959 35.653C104.542 34.4521 104.367 33.1808 104.443 31.9119C104.319 29.4576 105.148 27.0502 106.756 25.1923C107.537 24.3528 108.491 23.6924 109.551 23.2566C110.612 22.8208 111.754 22.6199 112.9 22.6677C114.23 22.64 115.547 22.9331 116.739 23.522ZM190.836 25.9987C190.264 24.9403 189.388 24.0777 188.321 23.522C187.128 22.9349 185.811 22.6419 184.482 22.6677C183.336 22.6199 182.194 22.8208 181.133 23.2566C180.072 23.6924 179.119 24.3528 178.338 25.1923C176.729 27.0502 175.901 29.4576 176.024 31.9119C175.949 33.1808 176.124 34.4521 176.541 35.653C176.958 36.8539 177.608 37.9607 178.453 38.9099C179.334 39.7777 180.387 40.4508 181.545 40.8857C182.702 41.3206 183.938 41.5076 185.173 41.4345C186.931 41.4867 188.658 40.9681 190.097 39.9562C191.494 38.8777 192.52 37.3916 193.035 35.7037H182.926V29.8768H200.129V37.2204C199.521 39.2401 198.508 41.1149 197.153 42.7305C195.686 44.4675 193.862 45.8686 191.806 46.839C189.524 47.9191 187.024 48.4579 184.501 48.4133C181.509 48.4665 178.556 47.7421 175.928 46.311C173.459 44.9547 171.422 42.9282 170.054 40.465C168.672 37.8204 167.951 34.8811 167.951 31.8975C167.951 28.914 168.672 25.9747 170.054 23.33C171.413 20.8623 173.439 18.8266 175.9 17.4552C178.519 16.0224 181.467 15.2978 184.453 15.3529C187.945 15.2369 191.384 16.2244 194.283 18.1752C196.942 20.0455 198.823 22.8254 199.572 25.9891L190.836 25.9987ZM205.428 40.4486C206.867 42.9448 208.962 44.9997 211.485 46.3907H211.505C214.077 47.7887 216.957 48.521 219.885 48.521C222.812 48.521 225.693 47.7887 228.265 46.3907C230.773 44.9951 232.851 42.9403 234.274 40.4486C235.722 37.8269 236.482 34.8809 236.482 31.8859C236.482 28.891 235.722 25.9449 234.274 23.3233C232.855 20.8332 230.775 18.7836 228.265 17.4004C225.688 16.0082 222.805 15.2793 219.875 15.2793C216.946 15.2793 214.063 16.0082 211.485 17.4004C208.967 18.7896 206.873 20.8368 205.428 23.3233C203.955 25.9368 203.182 28.886 203.182 31.8859C203.182 34.8858 203.955 37.8351 205.428 40.4486ZM228.428 31.8523C228.428 34.3332 227.608 36.7446 226.096 38.7111V38.7207C225.309 39.5764 224.344 40.25 223.27 40.6944C222.195 41.1387 221.037 41.3432 219.875 41.2934C218.707 41.3462 217.541 41.1444 216.459 40.7018C215.376 40.2592 214.403 39.5865 213.607 38.7303C212.094 36.7564 211.275 34.339 211.275 31.8523C211.275 29.3656 212.094 26.9482 213.607 24.9744C214.406 24.1227 215.38 23.4542 216.462 23.0151C217.544 22.5759 218.709 22.3765 219.875 22.4305C221.036 22.3808 222.194 22.5843 223.268 23.0269C224.342 23.4695 225.307 24.1406 226.096 24.9935C227.608 26.9601 228.428 29.3714 228.428 31.8523ZM273.741 15.9668V19.3842H264.958V48.1824H260.753V19.3842H251.922V15.9668H273.741ZM281.65 37.0967H301.904C301.991 36.204 302.039 35.3688 302.039 34.5529C302.074 32.386 301.559 30.2457 300.541 28.3325C299.553 26.5154 298.068 25.0171 296.26 24.0127C294.306 22.9384 292.105 22.3955 289.876 22.4384C287.596 22.3906 285.342 22.94 283.339 24.0319C281.451 25.0845 279.915 26.6706 278.923 28.5916C277.839 30.7208 277.298 33.0854 277.349 35.4744C277.297 37.8814 277.855 40.2624 278.971 42.3956C279.992 44.3184 281.536 45.9126 283.425 46.9937C285.397 48.0869 287.622 48.6431 289.876 48.6064C292.587 48.7035 295.254 47.9001 297.46 46.3218C299.45 44.8592 300.885 42.7642 301.53 40.3797H296.999C296.536 41.7603 295.636 42.9529 294.436 43.7779C293.085 44.6649 291.492 45.1109 289.876 45.0546C288.81 45.088 287.747 44.907 286.751 44.5223C285.756 44.1376 284.848 43.5571 284.08 42.815C283.313 42.0729 282.703 41.1845 282.285 40.2023C281.868 39.22 281.652 38.164 281.65 37.0967ZM293.754 26.9021C294.947 27.4882 295.947 28.4044 296.634 29.542C297.37 30.7945 297.742 32.2271 297.709 33.6793H281.717C281.804 31.5361 282.724 29.5114 284.28 28.0349C285.763 26.6844 287.708 25.9557 289.713 25.9998C291.112 25.9797 292.497 26.2888 293.754 26.9021ZM307.586 28.649C308.579 26.7475 310.094 25.169 311.954 24.0989C314.146 22.9332 316.612 22.3778 319.093 22.491C321.573 22.6041 323.978 23.3816 326.055 24.7421C328.099 26.2918 329.519 28.5226 330.058 31.0297H325.527C325.138 29.556 324.245 28.2652 323.003 27.3819C321.636 26.4514 320.009 25.9806 318.357 26.038C317.263 25.9988 316.175 26.2003 315.168 26.6283C314.161 27.0562 313.26 27.7002 312.53 28.5146C311.051 30.1657 310.312 32.4984 310.312 35.5126C310.312 38.5268 311.051 40.8851 312.53 42.5874C313.256 43.4091 314.155 44.0599 315.162 44.4931C316.17 44.9263 317.261 45.1311 318.357 45.0928C319.996 45.1543 321.614 44.7011 322.984 43.7969C324.239 42.8977 325.139 41.5864 325.527 40.0915H330.058C329.453 42.5694 328.016 44.7648 325.988 46.3119C323.778 47.9229 321.09 48.7445 318.357 48.6446C316.117 48.6865 313.906 48.1298 311.954 47.0319C310.093 45.9507 308.578 44.3626 307.586 42.453C306.497 40.3048 305.956 37.9205 306.012 35.5126C305.96 33.1297 306.501 30.7713 307.586 28.649Z" fill="white"/>
<path fill-rule="evenodd" clip-rule="evenodd" d="M49.4274 0C43.4146 -0.00115687 37.532 1.75201 32.5008 5.0446C27.4696 8.33719 23.5083 13.0261 21.1026 18.5367H16.2919C16.0491 17.85 15.5713 17.2712 14.943 16.9027C14.3148 16.5341 13.5765 16.3995 12.8586 16.5227C12.1407 16.6459 11.4894 17.0189 11.0199 17.5758C10.5505 18.1327 10.293 18.8376 10.293 19.566C10.293 20.2944 10.5505 20.9993 11.0199 21.5562C11.4894 22.1131 12.1407 22.4861 12.8586 22.6092C13.5765 22.7324 14.3148 22.5978 14.943 22.2293C15.5713 21.8607 16.0491 21.2819 16.2919 20.5952H28.8487C30.0693 18.0968 31.7447 15.8476 33.789 13.9628C40.158 8.08164 47.6818 7.88609 49.4233 7.88609C55.5335 7.89527 61.3937 10.3132 65.7327 14.6153L59.0858 21.3404C57.9743 20.1886 56.6622 19.249 55.2138 18.5676C53.3853 17.7252 51.3932 17.2971 49.3801 17.314C43.536 17.3696 39.7484 21.2869 39.4993 21.5586C36.0719 25.2186 35.8825 29.5867 35.8764 30.8342C35.8764 31.9972 35.9999 36.8038 39.8657 40.6141C43.571 44.2699 48.1161 44.4758 49.4254 44.482C52.1927 44.4911 54.8991 43.6693 57.1941 42.1229C59.4907 40.5213 61.2334 38.2463 62.1818 35.6119H49.5839L49.5962 26.1202H72.0132C72.1943 27.1062 74.189 39.0887 65.4445 47.5141C59.1106 53.6258 51.2759 53.8955 49.4192 53.9058C47.935 53.9058 39.5137 53.7678 32.8812 46.9254C31.2455 45.2386 29.8848 43.3055 28.8487 41.1966C28.5049 40.4988 28.2085 39.8092 27.9553 39.1381H16.2919C16.0491 38.4514 15.5713 37.8726 14.943 37.5041C14.3148 37.1355 13.5765 37.0009 12.8586 37.1241C12.1407 37.2473 11.4894 37.6203 11.0199 38.1772C10.5505 38.7341 10.293 39.439 10.293 40.1674C10.293 40.8958 10.5505 41.6007 11.0199 42.1576C11.4894 42.7145 12.1407 43.0875 12.8586 43.2106C13.5765 43.3338 14.3148 43.1992 14.943 42.8307C15.5713 42.4621 16.0491 41.8833 16.2919 41.1966H20.2894C22.1774 46.537 25.4971 51.2557 29.8857 54.8369C34.2743 58.4181 39.5628 60.724 45.1734 61.5027C50.784 62.2813 56.5006 61.5026 61.6985 59.2518C66.8964 57.0009 71.3756 53.3645 74.6465 48.74C77.9173 44.1155 79.854 38.6809 80.2449 33.03C80.6358 27.3792 79.4657 21.7297 76.8627 16.6989C74.2597 11.6681 70.3238 7.44963 65.4853 4.50459C60.6467 1.55955 55.0917 0.0012529 49.4274 0ZM26.8226 26.7732C26.942 26.1351 27.0964 25.4435 27.3022 24.7147H5.99889C5.75609 24.028 5.27834 23.4492 4.65008 23.0807C4.02182 22.7121 3.28349 22.5776 2.5656 22.7007C1.8477 22.8239 1.19646 23.1969 0.726979 23.7538C0.257497 24.3107 0 25.0156 0 25.744C0 26.4724 0.257497 27.1773 0.726979 27.7342C1.19646 28.2911 1.8477 28.6641 2.5656 28.7873C3.28349 28.9104 4.02182 28.7759 4.65008 28.4073C5.27834 28.0388 5.75609 27.46 5.99889 26.7732H26.8226ZM17.0056 29.2604C17.6338 29.6289 18.1116 30.2077 18.3544 30.8944H26.4134C26.4134 31.3061 26.4257 32.0225 26.5163 32.9529H18.3544C18.1116 33.6397 17.6338 34.2184 17.0056 34.587C16.3773 34.9555 15.639 35.0901 14.9211 34.967C14.2032 34.8438 13.5519 34.4708 13.0824 33.9139C12.613 33.357 12.3555 32.6521 12.3555 31.9237C12.3555 31.1953 12.613 30.4904 13.0824 29.9335C13.5519 29.3766 14.2032 29.0036 14.9211 28.8804C15.639 28.7572 16.3773 28.8918 17.0056 29.2604Z" fill="white"/>
</svg>
