<svg width="339" height="60" viewBox="0 0 339 60" fill="none" xmlns="http://www.w3.org/2000/svg">
<path fill-rule="evenodd" clip-rule="evenodd" d="M336.746 26.691C335.986 25.2142 334.791 24.0052 333.324 23.2259C331.829 22.4478 330.165 22.0501 328.48 22.0679C326.875 22.0427 325.286 22.3863 323.835 23.0721C322.507 23.6927 321.381 24.674 320.585 25.9039V14.1426H316.619V46.3867H320.521V33.1868C320.515 30.6838 321.134 28.7809 322.377 27.4781C323.022 26.8156 323.8 26.298 324.66 25.9594C325.52 25.6209 326.443 25.4694 327.366 25.5149C328.268 25.4685 329.17 25.613 330.013 25.9388C330.855 26.2647 331.619 26.7645 332.255 27.4057C333.543 28.9285 334.192 30.8896 334.066 32.8792V46.3867H337.996V32.3093C338.055 30.3616 337.626 28.43 336.746 26.691ZM126.216 39.0865C127.573 41.4365 129.545 43.3726 131.92 44.6867H131.939C134.366 46.0051 137.085 46.6958 139.847 46.6958C142.61 46.6958 145.329 46.0051 147.756 44.6867C150.121 43.3714 152.081 41.4348 153.424 39.0865C154.789 36.6157 155.506 33.8391 155.506 31.0165C155.506 28.1938 154.789 25.4173 153.424 22.9464C152.085 20.5996 150.124 18.6679 147.756 17.3643C145.323 16.0522 142.602 15.3652 139.838 15.3652C137.074 15.3652 134.353 16.0522 131.92 17.3643C129.55 18.6767 127.579 20.6056 126.216 22.9464C124.827 25.4096 124.098 28.1891 124.098 31.0165C124.098 33.8438 124.827 36.6234 126.216 39.0865ZM147.91 30.9848C147.91 33.323 147.136 35.5956 145.71 37.449V37.4852C144.144 39.0365 142.029 39.907 139.825 39.907C137.62 39.907 135.505 39.0365 133.939 37.4852C132.513 35.6249 131.74 33.3466 131.74 31.0029C131.74 28.6592 132.513 26.3809 133.939 24.5206C135.51 22.9801 137.624 22.1171 139.825 22.1171C142.026 22.1171 144.139 22.9801 145.71 24.5206C147.136 26.374 147.91 28.6466 147.91 30.9848ZM110.108 23.1336C111.119 23.654 111.949 24.4676 112.489 25.4677L120.728 25.4587C120.019 22.4784 118.245 19.8594 115.739 18.0943C113.006 16.2558 109.762 15.3251 106.468 15.4344C103.652 15.3825 100.872 16.0654 98.4011 17.4158C96.08 18.7082 94.1693 20.6269 92.8873 22.9526C91.5846 25.4451 90.9043 28.2153 90.9043 31.0272C90.9043 33.8391 91.5846 36.6093 92.8873 39.1018C94.1771 41.4209 96.0942 43.3303 98.4192 44.6115C100.901 45.9598 103.689 46.6425 106.513 46.5929C108.894 46.6348 111.252 46.1271 113.404 45.1091C115.342 44.1969 117.059 42.8759 118.438 41.237C119.719 39.7148 120.677 37.9479 121.253 36.0439V29.1228H105.029V34.6144H114.499C114.032 36.2 113.083 37.6008 111.783 38.6223C110.426 39.5759 108.796 40.0648 107.138 40.0156C105.974 40.0844 104.808 39.9082 103.716 39.4983C102.625 39.0884 101.631 38.454 100.8 37.6362C100.003 36.7416 99.3902 35.6985 98.9971 34.5667C98.604 33.4349 98.4384 32.2367 98.5098 31.0408C98.3929 28.7276 99.1747 26.4588 100.692 24.7078C101.428 23.9165 102.328 23.2941 103.328 22.8834C104.328 22.4727 105.406 22.2833 106.486 22.3284C107.741 22.3023 108.983 22.5785 110.108 23.1336ZM179.995 25.4677C179.455 24.4703 178.629 23.6573 177.623 23.1336C176.497 22.5802 175.255 22.3041 174.001 22.3284C172.921 22.2833 171.843 22.4727 170.843 22.8834C169.843 23.2941 168.943 23.9165 168.207 24.7078C166.69 26.4588 165.908 28.7276 166.025 31.0408C165.953 32.2367 166.119 33.4349 166.512 34.5667C166.905 35.6985 167.518 36.7416 168.315 37.6362C169.146 38.454 170.14 39.0884 171.231 39.4983C172.323 39.9082 173.489 40.0844 174.653 40.0156C176.311 40.0648 177.941 39.5759 179.298 38.6223C180.615 37.6059 181.583 36.2052 182.068 34.6144H172.534V29.1228H188.759V36.0439C188.186 37.9474 187.231 39.7143 185.952 41.237C184.569 42.874 182.849 44.1946 180.909 45.1091C178.758 46.1271 176.4 46.6348 174.019 46.5929C171.198 46.643 168.412 45.9603 165.934 44.6115C163.605 43.3332 161.684 41.4233 160.393 39.1018C159.09 36.6093 158.41 33.8391 158.41 31.0272C158.41 28.2153 159.09 25.4451 160.393 22.9526C161.675 20.6269 163.586 18.7082 165.907 17.4158C168.378 16.0654 171.158 15.3825 173.974 15.4344C177.267 15.3251 180.512 16.2558 183.245 18.0943C185.753 19.857 187.528 22.477 188.234 25.4587L179.995 25.4677ZM193.757 39.0866C195.115 41.4392 197.091 43.3758 199.471 44.6868H199.489C201.914 46.0044 204.632 46.6946 207.393 46.6946C210.154 46.6946 212.871 46.0044 215.297 44.6868C217.662 43.3715 219.622 41.4349 220.965 39.0866C222.33 36.6157 223.047 33.8391 223.047 31.0165C223.047 28.1938 222.33 25.4173 220.965 22.9464C219.626 20.5996 217.665 18.6679 215.297 17.3643C212.866 16.0522 210.147 15.3652 207.384 15.3652C204.621 15.3652 201.901 16.0522 199.471 17.3643C197.095 18.6736 195.121 20.603 193.757 22.9464C192.368 25.4096 191.639 28.1891 191.639 31.0165C191.639 33.8438 192.368 36.6234 193.757 39.0866ZM215.451 30.9848C215.451 33.323 214.677 35.5956 213.251 37.449V37.4581C212.508 38.2646 211.599 38.8994 210.585 39.3182C209.572 39.737 208.479 39.9297 207.384 39.8827C206.282 39.9325 205.182 39.7423 204.161 39.3252C203.141 38.9081 202.223 38.2741 201.471 37.4671C200.045 35.6068 199.272 33.3285 199.272 30.9848C199.272 28.6411 200.045 26.3628 201.471 24.5025C202.225 23.6998 203.144 23.0699 204.164 22.656C205.185 22.2421 206.283 22.0541 207.384 22.105C208.478 22.0582 209.57 22.25 210.583 22.6671C211.597 23.0843 212.507 23.7167 213.251 24.5206C214.677 26.374 215.451 28.6466 215.451 30.9848ZM258.187 16.0117V19.2325H249.903V46.374H245.937V19.2325H237.607V16.0117H258.187ZM265.647 35.9271H284.751C284.833 35.0857 284.878 34.2986 284.878 33.5296C284.911 31.4874 284.425 29.4702 283.465 27.6671C282.533 25.9545 281.133 24.5424 279.427 23.5958C277.585 22.5833 275.509 22.0717 273.406 22.1121C271.255 22.067 269.13 22.5848 267.241 23.6139C265.46 24.6059 264.011 26.1007 263.076 27.9113C262.053 29.918 261.543 32.1465 261.591 34.3981C261.542 36.6666 262.068 38.9107 263.121 40.9211C264.084 42.7333 265.54 44.2358 267.322 45.2547C269.182 46.285 271.28 46.8092 273.406 46.7747C275.963 46.8662 278.478 46.109 280.559 44.6214C282.437 43.243 283.79 41.2685 284.398 39.0212H280.124C279.687 40.3223 278.839 41.4463 277.707 42.2239C276.433 43.0598 274.93 43.4802 273.406 43.4272C272.4 43.4587 271.398 43.2881 270.459 42.9255C269.52 42.5629 268.663 42.0158 267.94 41.3164C267.216 40.617 266.641 39.7797 266.247 38.854C265.853 37.9283 265.649 36.933 265.647 35.9271ZM277.064 26.319C278.189 26.8713 279.132 27.7349 279.78 28.807C280.474 29.9875 280.825 31.3377 280.794 32.7063H265.711C265.793 30.6864 266.66 28.7781 268.128 27.3866C269.527 26.1138 271.361 25.427 273.253 25.4686C274.572 25.4496 275.878 25.7409 277.064 26.319ZM290.11 27.9658C291.046 26.1737 292.476 24.686 294.229 23.6775C296.297 22.5788 298.623 22.0554 300.962 22.162C303.302 22.2686 305.57 23.0014 307.529 24.2836C309.457 25.7442 310.796 27.8466 311.305 30.2095H307.031C306.664 28.8206 305.822 27.6041 304.65 26.7716C303.361 25.8946 301.826 25.4509 300.268 25.505C299.237 25.468 298.21 25.658 297.261 26.0613C296.311 26.4647 295.461 27.0716 294.772 27.8391C293.378 29.3952 292.681 31.5937 292.681 34.4345C292.681 37.2753 293.378 39.4979 294.772 41.1023C295.457 41.8767 296.305 42.4901 297.255 42.8984C298.206 43.3066 299.235 43.4997 300.268 43.4636C301.815 43.5215 303.341 43.0944 304.632 42.2422C305.817 41.3948 306.666 40.1589 307.031 38.75H311.305C310.734 41.0853 309.379 43.1545 307.466 44.6126C305.381 46.1309 302.846 46.9051 300.268 46.811C298.156 46.8505 296.071 46.3258 294.229 45.2911C292.474 44.2721 291.045 42.7754 290.11 40.9756C289.082 38.951 288.572 36.7039 288.625 34.4345C288.576 32.1887 289.087 29.966 290.11 27.9658Z" fill="#413A97"/>
<path fill-rule="evenodd" clip-rule="evenodd" d="M46.6197 0.962891C40.9486 0.9618 35.4003 2.6141 30.6549 5.71728C25.9096 8.82045 22.1734 13.2396 19.9044 18.4332H15.367C15.138 17.786 14.6874 17.2405 14.0948 16.8931C13.5023 16.5458 12.8059 16.419 12.1288 16.535C11.4517 16.6511 10.8375 17.0027 10.3947 17.5275C9.95185 18.0524 9.70898 18.7168 9.70898 19.4032C9.70898 20.0897 9.95185 20.7541 10.3947 21.279C10.8375 21.8038 11.4517 22.1553 12.1288 22.2714C12.8059 22.3875 13.5023 22.2607 14.0948 21.9133C14.6874 21.566 15.138 21.0205 15.367 20.3733H27.2103C28.3616 18.0186 29.9418 15.8988 31.87 14.1224C37.877 8.5796 44.9733 8.39529 46.6159 8.39529C52.3789 8.40395 57.9061 10.6828 61.9986 14.7374L55.7294 21.0756C54.681 19.99 53.4435 19.1045 52.0774 18.4623C50.3527 17.6684 48.4739 17.2649 46.5751 17.2808C41.0631 17.3332 37.4907 21.0251 37.2558 21.2812C34.0231 24.7307 33.8445 28.8475 33.8387 30.0232C33.8387 31.1193 33.9552 35.6494 37.6014 39.2404C41.0961 42.686 45.383 42.88 46.6178 42.8858C49.2279 42.8945 51.7805 42.1199 53.9451 40.6625C56.1112 39.153 57.7549 37.0089 58.6494 34.5261H46.7673L46.7789 25.5804H67.9221C68.093 26.5097 69.9743 37.8029 61.7267 45.7436C55.7527 51.5036 48.3632 51.7578 46.612 51.7675C45.2121 51.7675 37.2693 51.6375 31.0138 45.1887C29.471 43.5989 28.1876 41.777 27.2103 39.7895C26.8861 39.1318 26.6065 38.4819 26.3677 37.8494H15.367C15.138 37.2022 14.6874 36.6567 14.0948 36.3094C13.5023 35.962 12.8059 35.8352 12.1288 35.9513C11.4517 36.0673 10.8375 36.4189 10.3947 36.9437C9.95185 37.4686 9.70898 38.133 9.70898 38.8194C9.70898 39.5059 9.95185 40.1703 10.3947 40.6952C10.8375 41.22 11.4517 41.5716 12.1288 41.6876C12.8059 41.8037 13.5023 41.6769 14.0948 41.3295C14.6874 40.9822 15.138 40.4367 15.367 39.7895H19.1374C20.9182 44.8227 24.0492 49.2699 28.1884 52.6451C32.3276 56.0203 37.3157 58.1935 42.6075 58.9273C47.8992 59.6611 53.291 58.9273 58.1936 56.8059C63.0962 54.6846 67.3208 51.2574 70.4058 46.8989C73.4908 42.5405 75.3175 37.4184 75.6861 32.0927C76.0548 26.767 74.9512 21.4424 72.4961 16.7011C70.041 11.9597 66.3288 7.98395 61.7652 5.20834C57.2016 2.43272 51.9622 0.964071 46.6197 0.962891ZM25.2985 26.1972C25.4111 25.5957 25.5567 24.9437 25.7509 24.2568H5.65802C5.42902 23.6095 4.97842 23.0639 4.38586 22.7165C3.79329 22.3691 3.09692 22.2423 2.41981 22.3584C1.74271 22.4745 1.12848 22.8261 0.685671 23.351C0.242865 23.8759 0 24.5404 0 25.227C0 25.9136 0.242865 26.5781 0.685671 27.103C1.12848 27.6279 1.74271 27.9795 2.41981 28.0956C3.09692 28.2117 3.79329 28.0849 4.38586 27.7375C4.97842 27.3901 5.42902 26.8445 5.65802 26.1972H25.2985ZM16.0402 28.5407C16.6327 28.8881 17.0833 29.4337 17.3123 30.081H24.9134C24.9134 30.4691 24.925 31.1443 25.0105 32.0214H17.3123C17.0833 32.6687 16.6327 33.2142 16.0402 33.5616C15.4476 33.909 14.7512 34.0359 14.0741 33.9198C13.397 33.8037 12.7828 33.4521 12.34 32.9272C11.8972 32.4022 11.6543 31.7378 11.6543 31.0512C11.6543 30.3646 11.8972 29.7001 12.34 29.1752C12.7828 28.6502 13.397 28.2986 14.0741 28.1825C14.7512 28.0664 15.4476 28.1933 16.0402 28.5407Z" fill="#413A97"/>
</svg>
