<svg width="60" height="60" viewBox="0 0 60 60" fill="none" xmlns="http://www.w3.org/2000/svg">
<path d="M30 0C13.4314 0 0 13.4314 0 30C0 46.5686 13.4314 60 30 60C46.5686 60 60 46.5686 60 30C60 13.4314 46.5686 0 30 0ZM43.9055 20.4024C43.454 25.1462 41.5005 36.6578 40.5063 41.971C40.0858 44.219 39.2577 44.9729 38.4561 45.0466C36.7142 45.207 35.391 43.8953 33.7037 42.7892C31.0633 41.0584 29.5717 39.9809 27.0086 38.292C24.0467 36.3402 25.9668 35.2678 27.6548 33.5137C28.0966 33.0549 35.7726 26.073 35.9211 25.4396C35.9396 25.3604 35.9574 25.0646 35.7815 24.9093C35.6056 24.754 35.3473 24.8066 35.1604 24.8488C34.8956 24.909 30.6775 27.697 22.5062 33.2128C21.309 34.0349 20.2246 34.4354 19.2529 34.4145C18.1817 34.3914 16.1213 33.8089 14.5894 33.3109C12.7107 32.7002 11.2175 32.3774 11.3475 31.3402C11.4152 30.7999 12.1592 30.2475 13.5794 29.6829C22.325 25.8726 28.1568 23.3605 31.0747 22.1467C39.406 18.6813 41.1371 18.0794 42.2655 18.0593C42.5137 18.0552 43.0686 18.1166 43.428 18.4083C43.6671 18.616 43.8195 18.906 43.855 19.2207C43.9159 19.6115 43.9329 20.0079 43.9055 20.4024Z" fill="white"/>
</svg>
